# xmcd
#
# Track frame offsets: 
#        150
#        12397
#        24544
#        35604
#        48750
#        59753
#        73848
#        84513
#        94919
#        107207
#        116201
#        128399
#        139903
#        150507
#        161422
#        175111
#        188375
#        201266
#        211073
#        222674
#        232946
#        242336
#        251689
#        265457
#
# Disc length: 3716 seconds
#
# Revision: 1
# Processed by: cddbd v1.5.2PL0 Copyright (c) Steve Scherf et al.
# Submitted via: ExactAudioCopy v1.3
#
DISCID=510e8218
DTITLE=Various Artist - Blue Beat - The Singles - Vol. 1 - BB01-BB48 
DTITLE=CD 3
DYEAR=2014
DGENRE=R&B
TTITLE0=Hank Marr - Tonk Game
TTITLE1=Hank Marr - Hob-Nobbin'
TTITLE2=Errol Dixon - Blue Beats - Midnight Train
TTITLE3=Errol Dixon - Blue Beats - Anytime Anywhere
TTITLE4=Byron Lee - Dragonnaires - Mash! Mr Lee
TTITLE5=Byron Lee - Dragonnaires - Help Me Forget
TTITLE6=Wiggans - Rock Baby
TTITLE7=Wiggans - Let's Sing The Blues
TTITLE8=Folks Brothers - Carolina
TTITLE9=Folks Brothers - I Met A Man
TTITLE10=Derrick Morgan - Trenton Spence Orchestra - Now We Know
TTITLE11=Derrick Morgan - Trenton Spence Orchestra - Nights Are Lonely
TTITLE12=Titus Turner - Miss Rubberneck Jones
TTITLE13=Titus Turner - Way Down Yonder
TTITLE14=Theophilus Beckford - Jack And Jill Shuffle
TTITLE15=Theophilus Beckford - Little Lady
TTITLE16=Clancey Eccles - River Jordan
TTITLE17=Clancey Eccles - I Live And I Love
TTITLE18=Derrick Morgan - Leave Earth
TTITLE19=Derrick Morgan - Wigger Wee Shuffle
TTITLE20=Jiving Juniors - Over The River
TTITLE21=Jiving Juniors - Hip Rub
TTITLE22=Nevelle Esson - Clue J. And His Blues Blasters - Lover's Jive
TTITLE23=Nevelle Esson - Clue J. And His Blues Blasters - Wicked And Dr
TTITLE23=eadful
EXTD=
EXTT0=
EXTT1=
EXTT2=
EXTT3=
EXTT4=
EXTT5=
EXTT6=
EXTT7=
EXTT8=
EXTT9=
EXTT10=
EXTT11=
EXTT12=
EXTT13=
EXTT14=
EXTT15=
EXTT16=
EXTT17=
EXTT18=
EXTT19=
EXTT20=
EXTT21=
EXTT22=
EXTT23=
PLAYORDER=
